<svg width="12" height="14" viewBox="0 0 12 14" fill="none" xmlns="http://www.w3.org/2000/svg">
<path d="M5.98002 0.166992C7.0476 0.166992 7.9352 0.204288 8.65482 0.351562C9.38334 0.500691 9.98397 0.770482 10.4351 1.26465C10.881 1.75309 11.1288 2.40507 11.271 3.21289C11.413 4.01925 11.4576 5.03177 11.4576 6.28613C11.4576 6.77022 11.4587 7.22503 11.4595 7.65137C11.4632 9.66766 11.4655 11.0539 11.3745 11.958C11.3203 12.4974 11.2267 12.9553 11.021 13.2842C10.9105 13.461 10.7635 13.6075 10.5728 13.7051C10.3856 13.8008 10.1878 13.833 9.99857 13.833C9.56621 13.833 9.14661 13.5955 8.80814 13.3604C8.47767 13.1307 8.12931 12.8329 7.80033 12.5518C7.77433 12.5295 7.74795 12.5073 7.72221 12.4854C7.35906 12.1754 7.01789 11.8889 6.69779 11.6787C6.36577 11.4608 6.13209 11.377 5.98002 11.377C5.82791 11.377 5.59427 11.4607 5.26225 11.6787C4.9421 11.8889 4.60104 12.1753 4.23783 12.4854C4.21203 12.5074 4.18576 12.5295 4.15971 12.5518C3.83077 12.8329 3.48331 13.1307 3.15287 13.3604C2.81442 13.5955 2.39486 13.8329 1.96244 13.833C1.77312 13.833 1.57458 13.8009 1.38725 13.7051C1.1967 13.6075 1.04954 13.4609 0.939003 13.2842C0.733422 12.9553 0.6407 12.4973 0.586464 11.958C0.495551 11.0539 0.497859 9.66766 0.501503 7.65137C0.502274 7.22503 0.502479 6.77021 0.50248 6.28613C0.50248 5.0318 0.547088 4.01924 0.689003 3.21289C0.831197 2.40507 1.08005 1.75309 1.52592 1.26465C1.97706 0.770641 2.57772 0.500646 3.30619 0.351562C4.02571 0.204363 4.9127 0.166996 5.98002 0.166992ZM5.98002 1.16699C4.91867 1.167 4.11917 1.20662 3.50639 1.33203C2.90264 1.45559 2.52509 1.65365 2.2642 1.93945C1.99806 2.23104 1.80009 2.67167 1.67435 3.38574C1.54836 4.10155 1.50248 5.04156 1.50248 6.28613C1.50248 6.78195 1.50223 7.24377 1.5015 7.67383C1.49808 9.6906 1.49533 11.0088 1.5806 11.8574C1.63319 12.3804 1.71369 12.6357 1.78764 12.7539C1.81667 12.8003 1.83605 12.8107 1.8433 12.8145C1.8539 12.8199 1.88576 12.833 1.96244 12.833C2.06165 12.8329 2.25784 12.764 2.58158 12.5391C2.86901 12.3393 3.18064 12.0738 3.52201 11.7822C3.54412 11.7633 3.56605 11.7437 3.58842 11.7246C3.94444 11.4207 4.33224 11.093 4.71342 10.8428C5.08266 10.6004 5.52318 10.377 5.98002 10.377C6.43683 10.377 6.87738 10.6004 7.24662 10.8428C7.62774 11.093 8.01564 11.4208 8.37162 11.7246C8.39403 11.7437 8.41686 11.7633 8.439 11.7822C8.78026 12.0737 9.09111 12.3394 9.37846 12.5391C9.70261 12.7643 9.89944 12.833 9.99857 12.833C10.0746 12.833 10.106 12.8199 10.1167 12.8145C10.1239 12.8108 10.1442 12.8006 10.1734 12.7539C10.2473 12.6356 10.3269 12.3801 10.3794 11.8574C10.4647 11.0088 10.462 9.69063 10.4585 7.67383C10.4578 7.24377 10.4576 6.78195 10.4576 6.28613C10.4576 5.04156 10.4117 4.10155 10.2857 3.38574C10.1599 2.67164 9.962 2.23103 9.69584 1.93945C9.43494 1.65368 9.05736 1.45558 8.45365 1.33203C7.84087 1.20666 7.0413 1.16699 5.98002 1.16699ZM8.26517 4.64551C8.54123 4.64561 8.76517 4.86943 8.76517 5.14551C8.76497 5.42141 8.54111 5.64541 8.26517 5.64551H3.69486C3.4189 5.64544 3.19507 5.42144 3.19486 5.14551C3.19486 4.86941 3.41878 4.64557 3.69486 4.64551H8.26517Z" fill="#71B1A1"/>
</svg>
