<svg width="17" height="18" viewBox="0 0 17 18" fill="none" xmlns="http://www.w3.org/2000/svg">
<g clip-path="url(#clip0_1_2422)">
<path d="M5.66667 4.58551C5.63902 4.55809 5.63902 4.55809 5.61138 4.53067C5.47317 4.39357 5.41789 4.33873 5.41789 4.22905C5.41789 4.09196 5.47317 4.06454 5.61138 3.92744C5.66667 3.8726 5.74959 3.79034 5.80488 3.73551C5.88781 3.62583 5.8878 3.48873 5.77724 3.40647C5.66667 3.32422 5.52846 3.32422 5.44553 3.43389C5.39024 3.48873 5.33496 3.54357 5.27968 3.59841C5.11382 3.76293 4.94797 3.92744 4.94797 4.25647C4.94797 4.58551 5.11382 4.75002 5.27968 4.91454C5.30732 4.94196 5.30732 4.94196 5.33496 4.96938C5.50081 5.10647 5.61138 5.21615 5.61138 5.46293C5.61138 5.73712 5.47317 5.90164 5.30732 6.06615C5.27968 6.09357 5.27967 6.09357 5.25203 6.12099C5.16911 6.23067 5.16911 6.36776 5.27968 6.45002C5.33496 6.47744 5.39024 6.50486 5.44553 6.50486C5.50081 6.50486 5.58374 6.47744 5.63902 6.4226C5.66667 6.39518 5.66667 6.39518 5.69431 6.36776C5.88781 6.17583 6.13659 5.90164 6.13659 5.43551C6.10894 4.96938 5.86016 4.75002 5.66667 4.58551Z" fill="#A9A9A9" stroke="#A9A9A9" stroke-width="0.2"/>
<path d="M9.03903 3.51614C9.01138 3.48872 9.01138 3.48872 8.98374 3.4613C8.84553 3.3242 8.79025 3.26937 8.79025 3.15969C8.79025 3.02259 8.84553 2.99517 8.98374 2.85808C9.03903 2.80324 9.12195 2.72098 9.17724 2.66614C9.26017 2.55646 9.26016 2.41937 9.1496 2.33711C9.03903 2.25485 8.90082 2.25485 8.81789 2.36453C8.7626 2.41937 8.70732 2.4742 8.65203 2.52904C8.48618 2.69356 8.32033 2.85808 8.32033 3.18711C8.32033 3.51614 8.48618 3.68066 8.65203 3.84517C8.67968 3.87259 8.67968 3.87259 8.70732 3.90001C8.87317 4.03711 8.98374 4.14679 8.98374 4.39356C8.98374 4.66775 8.84553 4.83227 8.67968 4.99678C8.65203 5.0242 8.65204 5.0242 8.62439 5.05162C8.54147 5.1613 8.54147 5.2984 8.65203 5.38066C8.70732 5.40808 8.7626 5.43549 8.81789 5.43549C8.87317 5.43549 8.9561 5.40808 9.01138 5.35324C9.03903 5.32582 9.03903 5.32582 9.06667 5.2984C9.26016 5.10646 9.50895 4.83227 9.50895 4.36614C9.4813 3.90001 9.23252 3.68066 9.03903 3.51614Z" fill="#A9A9A9" stroke="#A9A9A9" stroke-width="0.2"/>
<path d="M12.439 4.58551C12.4114 4.55809 12.4114 4.55809 12.3838 4.53067C12.2455 4.39357 12.1903 4.33873 12.1903 4.22905C12.1903 4.09196 12.2455 4.06454 12.3838 3.92744C12.439 3.8726 12.522 3.79034 12.5772 3.73551C12.6602 3.62583 12.6602 3.48873 12.5496 3.40647C12.439 3.32422 12.3008 3.32422 12.2179 3.43389C12.1626 3.48873 12.1073 3.54357 12.052 3.59841C11.8862 3.76293 11.7203 3.92744 11.7203 4.25647C11.7203 4.58551 11.8862 4.75002 12.052 4.91454C12.0797 4.94196 12.0797 4.94196 12.1073 4.96938C12.2732 5.10647 12.3838 5.21615 12.3838 5.46293C12.3838 5.73712 12.2455 5.90164 12.0797 6.06615C12.052 6.09357 12.052 6.09357 12.0244 6.12099C11.9415 6.23067 11.9415 6.36776 12.052 6.45002C12.1073 6.47744 12.1626 6.50486 12.2179 6.50486C12.2732 6.50486 12.3561 6.47744 12.4114 6.4226C12.439 6.39518 12.439 6.39518 12.4667 6.36776C12.6602 6.17583 12.909 5.90164 12.909 5.43551C12.8537 4.96938 12.6049 4.75002 12.439 4.58551Z" fill="#A9A9A9" stroke="#A9A9A9" stroke-width="0.2"/>
<path d="M16.8065 14.5661H0.995118C0.856907 14.5661 0.746338 14.6758 0.746338 14.8129V15.3887C0.746338 16.0194 1.27154 16.5403 1.90731 16.5403H15.8943C16.5301 16.5403 17.0553 16.0194 17.0553 15.3887V14.8129C17.0553 14.6758 16.9447 14.5661 16.8065 14.5661ZM16.5577 15.3887C16.5577 15.7726 16.2537 16.0742 15.8667 16.0742H1.90731C1.52032 16.0742 1.21626 15.7726 1.21626 15.3887V15.0597H16.5577V15.3887Z" fill="#A9A9A9" stroke="#A9A9A9" stroke-width="0.2"/>
<path d="M13.2959 9.4113C12.3285 8.47904 11.0846 7.90324 9.78537 7.7113L10.2553 7.24517C10.3935 7.10808 10.4488 6.88872 10.3659 6.69679C10.2829 6.50485 10.1171 6.39517 9.89594 6.39517H7.90569C7.7122 6.39517 7.5187 6.50485 7.43577 6.69679C7.35285 6.88872 7.40813 7.08066 7.54634 7.24517L8.01626 7.7113C6.68943 7.90324 5.47317 8.47904 4.47805 9.4113C3.28943 10.5355 2.59838 12.071 2.54309 13.6887C2.54309 13.8258 2.65366 13.9355 2.76423 13.9355C2.90244 13.9355 3.01301 13.8258 3.01301 13.7161C3.06829 12.2081 3.70407 10.8097 4.80976 9.76775C5.83252 8.78066 7.15935 8.23227 8.54147 8.15001C8.56911 8.15001 8.59675 8.15001 8.62439 8.15001C8.65203 8.15001 8.67968 8.15001 8.70732 8.15001C8.73496 8.15001 8.73496 8.15001 8.7626 8.15001C8.79025 8.15001 8.84553 8.15001 8.87317 8.15001C8.90081 8.15001 8.9561 8.15001 8.98374 8.15001C9.01138 8.15001 9.01138 8.15001 9.03903 8.15001C9.06667 8.15001 9.09431 8.15001 9.12195 8.15001C9.14959 8.15001 9.17724 8.15001 9.20488 8.15001C10.6146 8.23227 11.9138 8.78066 12.9366 9.76775C14.0423 10.8097 14.6781 12.2081 14.7333 13.7161C14.7333 13.8532 14.8439 13.9629 14.9821 13.9355C15.1203 13.9355 15.2309 13.8258 15.2033 13.6887C15.1756 12.0436 14.4846 10.5355 13.2959 9.4113ZM9.14959 7.65646H9.12195C9.09431 7.65646 9.06667 7.65646 9.03903 7.65646C8.98374 7.65646 8.9561 7.65646 8.90081 7.65646C8.84553 7.65646 8.81789 7.65646 8.7626 7.65646C8.73496 7.65646 8.70732 7.65646 8.67968 7.65646H8.65203L7.90569 6.91614H9.89594L9.14959 7.65646Z" fill="#A9A9A9" stroke="#A9A9A9" stroke-width="0.2"/>
</g>
<defs>
<clipPath id="clip0_1_2422">
<rect width="17" height="17" fill="white" transform="translate(0 0.5)"/>
</clipPath>
</defs>
</svg>
